<?xml version="1.0" encoding="utf-8"?>
<!-- Generator: Adobe Illustrator 28.1.0, SVG Export Plug-In . SVG Version: 6.00 Build 0)  -->
<svg version="1.1" id="Layer_2_00000164503865328084862490000012214016967453602473_"
	 xmlns="http://www.w3.org/2000/svg" xmlns:xlink="http://www.w3.org/1999/xlink" x="0px" y="0px" viewBox="0 0 20.2 20.2"
	 style="enable-background:new 0 0 20.2 20.2;" xml:space="preserve">
<style type="text/css">
	.st0{fill:#5865F2;}
	.st1{fill:#88A7FF;}
</style>
<path class="st0" d="M15,9.3v3.6c0,1.1-0.9,2-2,2H7.3c-1.1,0-2-0.9-2-2V9.3H15z M10.1,12.9c0-0.2-0.2-0.4-0.4-0.4h-2
	c-0.2,0-0.4,0.2-0.4,0.4s0.2,0.4,0.4,0.4h2C9.9,13.3,10.1,13.2,10.1,12.9z M12.9,11.3c0-0.2-0.2-0.4-0.4-0.4H7.7
	c-0.2,0-0.4,0.2-0.4,0.4s0.2,0.4,0.4,0.4h4.9C12.8,11.7,12.9,11.5,12.9,11.3z"/>
<path class="st1" d="M5.2,8.5V8.1c0-1.1,0.9-2,2-2h0.4V5.6c0-0.2,0.2-0.4,0.4-0.4c0.2,0,0.4,0.2,0.4,0.4v0.4h3.2V5.6
	c0-0.2,0.2-0.4,0.4-0.4c0.2,0,0.4,0.2,0.4,0.4v0.4h0.4c1.1,0,2,0.9,2,2v0.4H5.2z"/>
</svg>
