<?xml version="1.0" encoding="utf-8"?>
<!-- Generator: Adobe Illustrator 28.1.0, SVG Export Plug-In . SVG Version: 6.00 Build 0)  -->
<svg version="1.1" id="Layer_1" xmlns="http://www.w3.org/2000/svg" xmlns:xlink="http://www.w3.org/1999/xlink" x="0px" y="0px"
	 viewBox="0 0 512 512" style="enable-background:new 0 0 512 512;" xml:space="preserve">
<style type="text/css">
	.st0{fill:#5865F2;}
	.st1{fill:#88A7FF;}
</style>
<path class="st0" d="M512,180.9v245.8c0,11.8-9.6,21.3-21.3,21.3c-11.8,0-21.3-9.6-21.3-21.3v-176l-157.9,75.4
	c-16.6,9.8-35.6,14.9-55,14.8c-20.3,0-40.2-5.4-57.6-15.8L41.5,250.2C3.1,229.6-11.2,181.9,9.4,143.6c7-13,17.5-23.7,30.3-31.1
	c0.6-0.3,1.2-0.7,1.8-1l159.1-75.9c35-20.1,78.1-19.7,112.7,1l157.3,74.9C495.8,125.6,511.6,152,512,180.9L512,180.9z"/>
<path class="st1" d="M256.5,383.6c-27.3,0.1-54.1-7.1-77.8-20.7l-93.4-44.6v57.6c0,46.7,30.4,88,75.1,101.9
	c31.1,8.9,63.3,13.3,95.6,12.9c32.3,0.4,64.5-4,95.6-12.9c44.6-13.9,75-55.2,75.1-101.9v-57.4l-95.1,45.4
	C308.7,376.9,282.8,383.8,256.5,383.6L256.5,383.6z"/>
</svg>
