<?xml version="1.0" encoding="utf-8"?>
<!-- Generator: Adobe Illustrator 28.1.0, SVG Export Plug-In . SVG Version: 6.00 Build 0)  -->
<svg version="1.1" id="Layer_2_00000028315485516993049480000013331435309728629658_"
	 xmlns="http://www.w3.org/2000/svg" xmlns:xlink="http://www.w3.org/1999/xlink" x="0px" y="0px" viewBox="0 0 20.2 20.2"
	 style="enable-background:new 0 0 20.2 20.2;" xml:space="preserve">
<style type="text/css">
	.st0{fill:#7171C5;}
	.st1{fill:#F74E62;}
</style>
<g>
	<path class="st0" d="M13.1,14.6h-6c-1.5,0-2.6-1.2-2.6-2.6V8.3c0-1.5,1.2-2.6,2.6-2.6h6c1.5,0,2.6,1.2,2.6,2.6v3.6
		C15.8,13.4,14.6,14.6,13.1,14.6z M7.1,6.6c-1,0-1.8,0.8-1.8,1.8v3.6c0,1,0.8,1.8,1.8,1.8h6c1,0,1.8-0.8,1.8-1.8V8.3
		c0-1-0.8-1.8-1.8-1.8C13.1,6.6,7.1,6.6,7.1,6.6z"/>
	<path class="st1" d="M11.7,10.9l2.2-1.7c0.2-0.1,0.2-0.4,0.1-0.6c-0.1-0.2-0.4-0.2-0.6-0.1l-2.2,1.7c-0.6,0.5-1.5,0.5-2.1,0L7,8.6
		C6.8,8.4,6.5,8.4,6.3,8.6S6.2,9.1,6.4,9.3l2.1,1.6l0,0c0.5,0.4,1,0.5,1.6,0.5S11.3,11.3,11.7,10.9L11.7,10.9z"/>
</g>
</svg>
