<svg id="Layer_2" data-name="Layer 2" xmlns="http://www.w3.org/2000/svg" viewBox="0 0 20.25 20.25"><defs><style>.cls-1{fill:#ebf0ff;}.cls-1,.cls-2,.cls-3{stroke-width:0px;}.cls-2{fill:#f74e62;}.cls-3{fill:#7171c5;}</style></defs><g id="Layer_1-2" data-name="Layer 1"><g id="_سایدبار" data-name="سایدبار"><g id="_اطلاعات" data-name="اطلاعات"><g><path class="cls-1" d="M0,10.12c0,7.86,2.26,10.12,10.12,10.12,7.86,0,10.12-2.26,10.12-10.12C20.25,2.26,17.99,0,10.12,0,2.26,0,0,2.26,0,10.12Z"/><g><path class="cls-3" d="M13.12,14.57h-5.99c-1.46,0-2.64-1.18-2.64-2.64v-3.61c0-1.46,1.18-2.64,2.64-2.64h5.99c1.46,0,2.64,1.18,2.64,2.64v3.61c0,1.46-1.18,2.64-2.64,2.64ZM7.13,6.56c-.97,0-1.76.79-1.76,1.76v3.61c0,.97.79,1.76,1.76,1.76h5.99c.97,0,1.76-.79,1.76-1.76v-3.61c0-.97-.79-1.76-1.76-1.76h-5.99Z"/><path class="cls-2" d="M11.74,10.9l2.18-1.66c.19-.15.23-.42.08-.62-.15-.19-.42-.23-.62-.08l-2.18,1.66c-.63.48-1.51.48-2.13,0l-2.11-1.64c-.19-.15-.47-.11-.62.08-.15.19-.11.47.08.62l2.11,1.64h0c.47.36,1.04.54,1.6.54s1.13-.18,1.6-.54Z"/></g></g></g></g></g></svg>
