<?xml version="1.0" encoding="utf-8"?>
<!-- Generator: Adobe Illustrator 28.1.0, SVG Export Plug-In . SVG Version: 6.00 Build 0)  -->
<svg version="1.1" id="Layer_1" xmlns="http://www.w3.org/2000/svg" xmlns:xlink="http://www.w3.org/1999/xlink" x="0px" y="0px"
	 viewBox="0 0 512 512" style="enable-background:new 0 0 512 512;" xml:space="preserve">
<style type="text/css">
	.st0{clip-path:url(#SVGID_00000070101248966370743090000013010067391118557620_);}
	.st1{fill:url(#SVGID_00000080919166609170210410000000071075319134686851_);}
	.st2{fill:url(#SVGID_00000030482182164358560700000003606369641787562134_);}
	.st3{fill:#FFFFFF;}
	.st4{fill:#28A7E8;}
	.st5{fill:#007EBB;}
	.st6{clip-path:url(#SVGID_00000081636749993611939110000014438546471153044113_);}
	.st7{fill:#41479B;}
	.st8{fill:#F5F5F5;}
	.st9{fill:#FF4B55;}
</style>
<g>
	<defs>
		<path id="SVGID_00000061464140688554611840000009326959665890017215_" d="M20.3,256C20.3,439,73,491.7,256,491.7
			S491.7,439,491.7,256S439,20.3,256,20.3S20.3,73,20.3,256z"/>
	</defs>
	<clipPath id="SVGID_00000027600352999293450800000012853557384225819021_">
		<use xlink:href="#SVGID_00000061464140688554611840000009326959665890017215_"  style="overflow:visible;"/>
	</clipPath>
	<g style="clip-path:url(#SVGID_00000027600352999293450800000012853557384225819021_);">
		<path class="st7" d="M388.6,491.7H123.4c-57,0-103.1-46.2-103.1-103.1V123.4c0-57,46.2-103.1,103.1-103.1h265.2
			c57,0,103.1,46.2,103.1,103.1v265.2C491.7,445.5,445.5,491.7,388.6,491.7z"/>
		<path class="st8" d="M491.7,388.6v-22.6L418.6,318h73.1v-24.8H293.2v198.5H318V341.1l157.4,103.1c5.6-8.8,9.9-18.4,12.7-28.4
			 M27.2,425.8c2.5,6.4,5.6,12.6,9.4,18.4L194,341.1v150.6h24.8V293.2H20.3V318h73.1l-73.1,47.9v22.6c0,4,0.2,7.9,0.7,11.7
			 M20.3,126.9v19.1L93.4,194H20.3v24.8h198.5V20.3H194v150.6L36.6,67.8C30.4,77.4,25.8,88,23.2,99.2 M484.6,85.8
			c-2.5-6.3-5.6-12.4-9.2-18.1L318,170.9V20.3h-24.8v198.5h198.5V194h-73.1l73.1-47.9v-22.6c0-4.1-0.2-8.2-0.7-12.1"/>
		<path class="st9" d="M293.2,20.3h-74.4v198.5H20.3v74.4h198.5v198.5h74.4V293.2h198.5v-74.4H293.2V20.3z"/>
		<path class="st9" d="M147.7,318L21,400.3c1,8.7,3.1,17.3,6.3,25.5L193.3,318L147.7,318L147.7,318L147.7,318z M337.5,318
			l150.6,97.8c2.4-8.9,3.6-18,3.6-27.2v0L383,318L337.5,318L337.5,318z M169.2,194l-146-94.8c-1.9,7.9-2.9,16.1-2.9,24.2v3.5
			L123.6,194L169.2,194L169.2,194z M363.6,194L491,111.3c-1-8.7-3.2-17.3-6.4-25.5L318,194H363.6z"/>
	</g>
</g>
</svg>
