<?xml version="1.0" encoding="utf-8"?>
<!-- Generator: Adobe Illustrator 28.1.0, SVG Export Plug-In . SVG Version: 6.00 Build 0)  -->
<svg version="1.1" id="Layer_2_00000164503865328084862490000012214016967453602473_"
	 xmlns="http://www.w3.org/2000/svg" xmlns:xlink="http://www.w3.org/1999/xlink" x="0px" y="0px" viewBox="0 0 20.2 20.2"
	 style="enable-background:new 0 0 20.2 20.2;" xml:space="preserve">
<style type="text/css">
	.st0{fill:#5865F2;}
	.st1{fill:#88A7FF;}
</style>
<path class="st0" d="M14.8,9.7c-0.2-0.3-0.5-0.4-0.8-0.4c0,0,0,0,0,0H9.3c-0.7,0-1.4,0.5-1.6,1.2l-1.2,4.1c0.2,0.1,0.4,0.1,0.7,0.1
	h5.2c0.9,0,1.7-0.6,2-1.5l0.6-2.5C15.1,10.3,15,10,14.8,9.7L14.8,9.7z"/>
<path class="st1" d="M5.2,12.6V7.2c0-0.9,0.7-1.6,1.6-1.6h0.8c0.2,0,0.4,0,0.6,0.1l1.3,0.7c0.1,0,0.1,0,0.2,0h2.1
	c1.1,0,2.1,0.9,2.1,2.1H9.3c-1.1,0-2.1,0.7-2.4,1.8l-1.1,3.9C5.4,13.7,5.2,13.2,5.2,12.6L5.2,12.6z"/>
</svg>
