<svg id="Layer_2" data-name="Layer 2" xmlns="http://www.w3.org/2000/svg" xmlns:xlink="http://www.w3.org/1999/xlink" viewBox="0 0 20.25 20.25"><defs><style>.cls-1{fill:#ebf0ff;}.cls-1,.cls-2,.cls-3{stroke-width:0px;}.cls-2{fill:#f74e62;}.cls-3{fill:#7171c5;}</style></defs><g id="Layer_1-2" data-name="Layer 1"><g id="_سایدبار" data-name="سایدبار"><g id="_اطلاعات" data-name="اطلاعات"><a xlink:href="https://hoseinfm.ir/"><g><path class="cls-1" d="M0,10.12c0,7.86,2.26,10.12,10.12,10.12,7.86,0,10.12-2.26,10.12-10.12C20.25,2.26,17.99,0,10.12,0,2.26,0,0,2.26,0,10.12Z"/><g><path class="cls-3" d="M10.88,12.29l-1.34,1.34c-.82.8-2.13.78-2.92-.04-.78-.8-.78-2.08,0-2.88l1.34-1.34c.16-.16.16-.42,0-.58-.16-.16-.42-.16-.58,0l-1.34,1.34c-1.13,1.13-1.13,2.96,0,4.08,1.13,1.13,2.96,1.13,4.08,0l1.34-1.34c.16-.16.15-.42-.01-.58-.16-.15-.41-.15-.57,0h0ZM14.21,6.04c-.54-.54-1.28-.85-2.04-.85h0c-.77,0-1.5.3-2.04.85l-1.34,1.34c-.16.16-.16.42,0,.58.16.16.42.16.58,0l1.34-1.34c.39-.39.91-.61,1.46-.61h0c1.14,0,2.07.93,2.07,2.07,0,.55-.22,1.07-.6,1.46l-1.34,1.34c-.16.16-.16.42,0,.58.16.16.42.16.58,0h0l1.34-1.34c1.13-1.13,1.13-2.96,0-4.08Z"/><path class="cls-2" d="M11.07,8.6l-2.47,2.47c-.16.16-.17.42-.01.58.16.16.42.17.58.01,0,0,0,0,.01-.01l2.47-2.47c.16-.16.15-.42-.01-.58-.16-.15-.41-.15-.57,0h0Z"/></g></g></a></g></g></g></svg>