<?xml version="1.0" encoding="utf-8"?>
<!-- Generator: Adobe Illustrator 28.1.0, SVG Export Plug-In . SVG Version: 6.00 Build 0)  -->
<svg version="1.1" id="Layer_2_00000096769720833494076620000017917173135850980537_"
	 xmlns="http://www.w3.org/2000/svg" xmlns:xlink="http://www.w3.org/1999/xlink" x="0px" y="0px" viewBox="0 0 20.2 20.2"
	 style="enable-background:new 0 0 20.2 20.2;" xml:space="preserve">
<style type="text/css">
	.st0{fill:#7171C5;}
	.st1{fill:#F74E62;}
</style>
<g>
	<path class="st0" d="M10.9,12.3l-1.3,1.3c-0.8,0.8-2.1,0.8-2.9,0c-0.8-0.8-0.8-2.1,0-2.9L8,9.4c0.2-0.2,0.2-0.4,0-0.6
		s-0.4-0.2-0.6,0L6,10.1c-1.1,1.1-1.1,3,0,4.1c1.1,1.1,3,1.1,4.1,0l1.3-1.3c0.2-0.2,0.1-0.4,0-0.6C11.3,12.1,11,12.1,10.9,12.3
		L10.9,12.3z M14.2,6c-0.5-0.5-1.3-0.8-2-0.8l0,0c-0.8,0-1.5,0.3-2,0.8L8.8,7.4C8.6,7.5,8.6,7.8,8.8,8s0.4,0.2,0.6,0l1.3-1.3
		C11.1,6.2,11.6,6,12.2,6l0,0c1.1,0,2.1,0.9,2.1,2.1c0,0.6-0.2,1.1-0.6,1.5l-1.3,1.3c-0.2,0.2-0.2,0.4,0,0.6s0.4,0.2,0.6,0l0,0
		l1.3-1.3C15.3,9,15.3,7.2,14.2,6L14.2,6z"/>
	<path class="st1" d="M11.1,8.6l-2.5,2.5c-0.2,0.2-0.2,0.4,0,0.6s0.4,0.2,0.6,0c0,0,0,0,0,0l2.5-2.5c0.2-0.2,0.1-0.4,0-0.6
		C11.5,8.5,11.2,8.5,11.1,8.6L11.1,8.6z"/>
</g>
</svg>
