<?xml version="1.0" encoding="utf-8"?>
<!-- Generator: Adobe Illustrator 28.1.0, SVG Export Plug-In . SVG Version: 6.00 Build 0)  -->
<svg version="1.1" id="Layer_2_00000164503865328084862490000012214016967453602473_"
	 xmlns="http://www.w3.org/2000/svg" xmlns:xlink="http://www.w3.org/1999/xlink" x="0px" y="0px" viewBox="0 0 20.2 20.2"
	 style="enable-background:new 0 0 20.2 20.2;" xml:space="preserve">
<style type="text/css">
	.st0{fill:#F74E62;}
	.st1{fill:#7171C5;}
</style>
<g>
	<path class="st0" d="M10.1,7.5c-1,0-1.8,0.8-1.8,1.8S9.1,11,10.1,11s1.8-0.8,1.8-1.8S11.1,7.5,10.1,7.5z M10.1,10.1
		c-0.5,0-0.9-0.4-0.9-0.9s0.4-0.9,0.9-0.9S11,8.8,11,9.2S10.6,10.1,10.1,10.1z"/>
	<path class="st1" d="M10.1,15.4c-0.8,0-1.5-0.4-1.9-1c-1.7-2.3-2.5-4.1-2.5-5.2c0-2.4,2-4.4,4.4-4.4c2.4,0,4.4,2,4.4,4.4
		c0,1.1-0.9,2.9-2.5,5.2C11.6,15,10.9,15.4,10.1,15.4L10.1,15.4z M10.1,5.8c-1.9,0-3.5,1.6-3.5,3.5c0,0.9,0.8,2.5,2.4,4.6
		c0.4,0.6,1.3,0.8,1.9,0.3c0.1-0.1,0.2-0.2,0.3-0.3c1.5-2.1,2.3-3.7,2.3-4.6C13.6,7.4,12,5.8,10.1,5.8z"/>
</g>
</svg>
