<?xml version="1.0" encoding="UTF-8"?>
<svg id="Layer_5" data-name="Layer 5" xmlns="http://www.w3.org/2000/svg" viewBox="0 0 1080 1080">
  <defs>
    <style>
      .cls-1 {
        fill: #333;
      }

      .cls-1, .cls-2, .cls-3 {
        stroke-width: 0px;
      }

      .cls-2 {
        fill: #ccc;
      }

      .cls-3 {
        fill: #fff;
      }
    </style>
  </defs>
  <circle class="cls-1" cx="540" cy="540" r="540"/>
  <path class="cls-3" d="M263.81,418.08h-47.1c-27.81,0-50.35,22.54-50.35,50.35h0c0,173.44,140.6,314.04,314.04,314.04h5.03v300.53h92.42v-350.88c0-173.44-140.6-314.04-314.04-314.04Z"/>
  <path class="cls-2" d="M847.29,327.83h-47.1c-114.15,0-214.06,60.92-269.03,152,30.23,31.99,54.21,68.67,71.35,109.19,13.56,32.07,22.39,65.53,26.4,99.91,151.96-21.96,268.73-152.7,268.73-310.75h0c0-27.81-22.54-50.35-50.35-50.35Z"/>
</svg>