<?xml version="1.0" encoding="utf-8"?>
<!-- Generator: Adobe Illustrator 28.1.0, SVG Export Plug-In . SVG Version: 6.00 Build 0)  -->
<svg version="1.1" id="Layer_1" xmlns="http://www.w3.org/2000/svg" xmlns:xlink="http://www.w3.org/1999/xlink" x="0px" y="0px"
	 viewBox="0 0 24 24" style="enable-background:new 0 0 24 24;" xml:space="preserve">
<style type="text/css">
	.st0{fill:#88A7FF;}
	.st1{fill:#5865F2;}
</style>
<path class="st0" d="M21,11h-5c-1.7,0-3,1.3-3,3v7c0,1.7,1.3,3,3,3h5c1.7,0,3-1.3,3-3v-7C24,12.3,22.7,11,21,11z M20,20h-3
	c-0.6,0-1-0.4-1-1s0.4-1,1-1h3c0.6,0,1,0.4,1,1S20.6,20,20,20z M20,16h-3c-0.6,0-1-0.4-1-1s0.4-1,1-1h3c0.6,0,1,0.4,1,1
	S20.6,16,20,16z"/>
<circle class="st1" cx="9" cy="6" r="6"/>
<path class="st1" d="M12,24H1c-0.6,0-1-0.5-1-1c0-5,4-9,9-9l0,0c0.7,0,1.4,0.1,2,0.2V21C11,22.1,11.4,23.2,12,24z"/>
</svg>
