<?xml version="1.0" encoding="utf-8"?>
<!-- Generator: Adobe Illustrator 28.1.0, SVG Export Plug-In . SVG Version: 6.00 Build 0)  -->
<svg version="1.1" id="Layer_2_00000181087154866591096630000000206841794828537512_"
	 xmlns="http://www.w3.org/2000/svg" xmlns:xlink="http://www.w3.org/1999/xlink" x="0px" y="0px" viewBox="0 0 20.2 20.2"
	 style="enable-background:new 0 0 20.2 20.2;" xml:space="preserve">
<style type="text/css">
	.st0{fill:#7070EF;}
	.st1{fill:#F74E62;}
</style>
<path class="st0" d="M14.3,11.9c0.5,0.5,0.5,1.2,0,1.7L14,14c-3.1,3-10.7-4.6-7.8-7.7l0.4-0.4c0.5-0.4,1.2-0.4,1.6,0
	c0,0,0.7,0.9,0.7,0.9C9.5,7.3,9.5,8,9,8.5L8.6,9c0.5,1.2,1.4,2.1,2.6,2.6l0.6-0.4c0.5-0.4,1.2-0.4,1.6,0
	C13.4,11.2,14.3,11.9,14.3,11.9L14.3,11.9z M13.8,12.5c0,0-0.9-0.7-0.9-0.7c-0.2-0.2-0.4-0.2-0.6,0c0,0-0.8,0.6-0.8,0.6
	c-0.1,0.1-0.2,0.1-0.4,0.1c-1.6-0.6-2.8-1.8-3.4-3.3C7.8,9,7.8,8.8,7.9,8.7c0,0,0.6-0.8,0.6-0.8c0.2-0.2,0.2-0.4,0-0.6
	c0,0-0.7-0.9-0.7-0.9c-0.2-0.2-0.4-0.1-0.6,0L6.8,6.8c-2.2,2.6,4.4,8.8,6.7,6.7l0.4-0.4C14,12.9,14,12.7,13.8,12.5L13.8,12.5
	L13.8,12.5z"/>
<path class="st1" d="M10.5,5.9c0-0.2,0.2-0.4,0.4-0.4c2.1,0,3.8,1.7,3.8,3.8c0,0.2-0.2,0.4-0.4,0.4s-0.4-0.2-0.4-0.4
	c0-1.7-1.4-3-3.1-3.1C10.7,6.3,10.5,6.2,10.5,5.9z"/>
<path class="st1" d="M10.9,7.8c0.8,0,1.5,0.7,1.5,1.5c0,0.2,0.2,0.4,0.4,0.4s0.4-0.2,0.4-0.4c0-1.3-1-2.3-2.3-2.3
	c-0.2,0-0.4,0.2-0.4,0.4S10.7,7.9,10.9,7.8z"/>
</svg>
