<?xml version="1.0" encoding="utf-8"?>
<!-- Generator: Adobe Illustrator 28.1.0, SVG Export Plug-In . SVG Version: 6.00 Build 0)  -->
<svg version="1.1" id="Layer_1" xmlns="http://www.w3.org/2000/svg" xmlns:xlink="http://www.w3.org/1999/xlink" x="0px" y="0px"
	 viewBox="0 0 512 512" style="enable-background:new 0 0 512 512;" xml:space="preserve">
<style type="text/css">
	.st0{fill:#5865F2;}
</style>
<path class="st0" d="M426.7,0H85.3C38.3,0,0,38.3,0,85.3v256c0,47.1,38.3,85.3,85.3,85.3h62.4l80,67.3c8.1,7.3,18.4,10.9,28.5,10.8
	c10,0,19.9-3.5,27.6-10.3l82.1-67.8h60.9c47.1,0,85.3-38.3,85.3-85.3v-256C512,38.3,473.7,0,426.7,0L426.7,0z M234.7,234.7
	c0,47.1-38.3,85.3-85.3,85.3c-11.8,0-21.3-9.5-21.3-21.3c0-11.8,9.5-21.3,21.3-21.3c23.5,0,42.7-19.1,42.7-42.7h-32
	c-17.7,0-32-14.3-32-32v-32c0-23.6,19.1-42.7,42.7-42.7h32c17.7,0,32,14.3,32,32V234.7z M384,234.7c0,47.1-38.3,85.3-85.3,85.3
	c-11.8,0-21.3-9.5-21.3-21.3c0-11.8,9.5-21.3,21.3-21.3c23.5,0,42.7-19.1,42.7-42.7h-32c-17.7,0-32-14.3-32-32v-32
	c0-23.6,19.1-42.7,42.7-42.7h32c17.7,0,32,14.3,32,32V234.7z"/>
</svg>
