<svg id="Layer_2" data-name="Layer 2" xmlns="http://www.w3.org/2000/svg" viewBox="0 0 20.25 20.25"><defs><style>.cls-1{fill:#ebf0ff;}.cls-1,.cls-2,.cls-3{stroke-width:0px;}.cls-2{fill:#f74e62;}.cls-3{fill:#7171c5;}</style></defs><g id="Layer_1-2" data-name="Layer 1"><g id="_سایدبار" data-name="سایدبار"><g id="_اطلاعات" data-name="اطلاعات"><g><path class="cls-1" d="M0,10.12c0,7.86,2.26,10.12,10.12,10.12,7.86,0,10.12-2.26,10.12-10.12C20.25,2.26,17.99,0,10.12,0,2.26,0,0,2.26,0,10.12Z"/><g><path class="cls-2" d="M10.12,7.48c-.97,0-1.76.79-1.76,1.76s.79,1.76,1.76,1.76,1.76-.79,1.76-1.76-.79-1.76-1.76-1.76ZM10.12,10.13c-.49,0-.88-.39-.88-.88s.39-.88.88-.88.88.39.88.88-.39.88-.88.88Z"/><path class="cls-3" d="M10.12,15.41c-.75,0-1.46-.36-1.9-.97-1.68-2.31-2.53-4.05-2.53-5.17,0-2.44,1.98-4.43,4.43-4.42,2.44,0,4.42,1.98,4.42,4.42,0,1.12-.85,2.86-2.53,5.17-.44.61-1.15.97-1.9.97ZM10.12,5.8c-1.91,0-3.46,1.55-3.47,3.47,0,.88.83,2.52,2.35,4.61.45.62,1.31.76,1.93.31.12-.09.22-.19.31-.31,1.51-2.09,2.35-3.72,2.35-4.61,0-1.91-1.55-3.46-3.47-3.47Z"/></g></g></g></g></g></svg>